Format : AVI
Format/Info : Audio Video Interleave
File size : 821 MiB
Duration : 1h 38mn
Overall bit rate : 1 171 Kbps
Writing application : VirtualDubMod 1.5.10.2 (build 2540/release)
Writing library : VirtualDub build 32839/release

Video
ID : 0
Format : MPEG-4 Visual
Format profile : Advanced Simple@L5
Format settings, BVOP : Yes
Format settings, QPel : No
Format settings, GMC : No warppoints
Format settings, Matrix : Custom
Codec ID : XVID
Codec ID/Hint : XviD
Duration : 1h 38mn
Bit rate : 1 035 Kbps
Width : 640 pixels
Height : 352 pixels
Display aspect ratio : 16:9
Frame rate : 23.976 fps
Color space : YUV
Chroma subsampling : 4:2:0
Bit depth : 8 bits
Scan type : Progressive
Bits/(Pixel*Frame) : 0.192
Stream size : 726 MiB (88%)
Writing library : XviD 1.2.1 (UTC 2008-12-04)

Audio
ID : 1
Format : MPEG Audio
Format version : Version 1
Format profile : Layer 3
Mode : Joint stereo
Mode extension : MS Stereo
Codec ID : 55
Codec ID/Hint : MP3
Duration : 1h 38mn
Bit rate mode : Variable
Bit rate : 128 Kbps
Channel(s) : 2 channels
Sampling rate : 48.0 KHz
Stream size : 86.8 MiB (11%)
Alignment : Aligned on interleaves
Interleave, duration : 24 ms (0.58 video frame)
Interleave, preload duration : 148 ms
Writing library : LAME3.90.
Encoding settings : -m j -V 4 -q 2 -lowpass 17.6 --abr 128


 
http://www.imdb.com/title/tt1536044/

Users: 6.1/10 (10,653 votes) 197 reviews | Critics: 168 reviews Metascore: 51/100 (based on 25 reviews from Metacritic.com)

After experiencing what they think are a series of "break-ins", a family sets up security cameras around their home, only to realize that the events unfolding before them are more sinister than they seem.
Director:
Tod Williams
Writers:
Michael R. Perry (screenplay), Christopher B. Landon (screenplay), and 3 more credits »
Stars:
Katie Featherston, Micah Sloat and Molly Ephraim
